<?xml version="1.0" encoding="utf-8"?>
<!-- Generator: Adobe Illustrator 27.5.0, SVG Export Plug-In . SVG Version: 6.00 Build 0)  -->
<svg version="1.1" id="Layer_1" xmlns="http://www.w3.org/2000/svg" xmlns:xlink="http://www.w3.org/1999/xlink" x="0px" y="0px"
	 viewBox="0 0 500 115.4" style="enable-background:new 0 0 500 115.4;" xml:space="preserve">
<style type="text/css">
	.st0{clip-path:url(#SVGID_00000083050398189283775630000003994960030664086186_);}
	.st1{fill:#7EC044;}
</style>
<g>
	<defs>
		<rect id="SVGID_1_" x="12" y="7.4" width="105" height="96"/>
	</defs>
	<clipPath id="SVGID_00000053505715904613614080000008671034495292301232_">
		<use xlink:href="#SVGID_1_"  style="overflow:visible;"/>
	</clipPath>
	<g style="clip-path:url(#SVGID_00000053505715904613614080000008671034495292301232_);">
		<path class="st1" d="M37.4,84.1L15.1,64.5L12,61.7l4-1.4l2-0.6c0.8,0,1.1-0.6,1.4-1.1c0.3-0.6,0.6-1.1,0.3-2l-3.4-11.8l-0.8-3.4
			l3.7,0.3l10.7,1.7c0.8,0,1.4,0,2-0.3c0.6-0.6,0.8-0.8,0.8-1.4l1.1-3.1l0.8-3.4l2.8,2.2l9.6,7.6l-2.8-19.3l-0.6-4.8l4,2.2l4.8,2.5
			c0.6,0,0.8,0.3,1.1,0.3s0.6,0,0.8-0.3c0.3,0,0.6,0,0.8-0.3s0.3-0.6,0.6-0.8l6.8-13.2l2.3-4.2l2,4.2L74,25.1
			c0.3,0.6,0.8,1.1,1.4,1.1c0.6,0.3,1.1,0.3,2,0l4.2-2.2l4.2-2.2l-0.6,4.8l-2.5,18.5l9.9-8.1l2.8-2.5l1.1,3.6l1.1,4.2
			c0.3,0.6,0.8,1.1,1.1,1.4c0.6,0.3,1.1,0.3,2,0.3l9.3-2l4-0.8l-1.1,3.9l-3.4,12.3c-0.3,0.8,0,1.4,0,1.7c0.6,0.6,0.8,1.1,1.4,1.4
			l2,0.6l4,1.4l-3.1,2.8L92.4,84.4l1.7,6.2l1.1,3.4l-3.7-0.3l-24.8-2v11.8h-4.8V91.7l-23.1,2l-3.1,0.3l0.6-3.1L37.4,84.1z
			 M21.3,63.4l18.9,16.5l20.9-17.1L37.4,43.5c-0.6,1.7-1.7,3.1-3.1,3.6c-1.4,1.1-3.1,1.4-5.1,1.1l-7.1-1.1l2.3,8.4
			c0.3,1.7,0.3,3.9-0.6,5.3C23,62,22.4,62.8,21.3,63.4z M52.6,50l12.1,9.8l12.4-10.1l2.5-19.3c-2,0.8-4,1.1-5.6,0.6
			c-2-0.6-3.4-1.7-4.2-3.6l-5.1-9.2l-4.5,9c-0.6,0.8-1.1,1.7-2,2.2c-0.8,0.6-1.4,1.1-2.5,1.4c-0.8,0.3-2,0.3-2.8,0.3
			c-0.8,0-2-0.3-2.8-0.8l-0.3-0.3L52.6,50z M41.6,88.6l22.6-2.2h0.6l23.7,2.2L87,84.4L86.5,83l1.4-1.1L107.6,64
			c-0.8-0.8-1.7-1.7-2.3-2.8c-0.8-1.4-1.1-3.4-0.3-5l2.3-8.7l-5.6,1.1c-2,0.3-3.7,0-5.4-0.8c-1.4-0.8-2.5-2.2-3.1-4.2L93,42.7
			L66.4,64.8L42.2,84.4L41.6,88.6z"/>
	</g>
</g>
<g>
	<g transform="translate(88.058531, 212.249986)">
		<g>
			<path class="st1" d="M43.4-123.6c-2.1,0-4.3,0.2-6.6,0.5c-2.3,0.3-3.8,0.6-4.5,0.7l1-4.4c3.2-0.6,5.4-1.5,6.6-2.7
				c1.2-1.2,2-3.2,2.3-6.2l5.3-43.2c0.1-1.2,0.2-2,0.2-2.4c0-1.2-0.2-2-0.7-2.4c-0.5-0.4-1.3-0.7-2.4-0.7c-0.7,0-1.3,0-2,0.1
				c-0.6,0.1-1.1,0.1-1.3,0.1l-0.2-0.4l1.2-4.2c0.8,0.1,2.2,0.1,4.3,0.2c2.1,0.1,4.2,0.1,6.3,0.1c2,0,3.9,0,5.7-0.1
				c1.8-0.1,3.1-0.2,3.7-0.3c5.8,0,10.5,1.2,14.1,3.6c3.6,2.4,5.4,5.7,5.4,9.9c0,3.9-1.2,7.3-3.6,10.4c-2.4,3.1-5.7,5.5-9.9,7.2
				c4.3,0.9,7.6,2.7,10,5.2c2.4,2.5,3.6,5.5,3.6,9c0,3.6-1.1,7-3.2,10.3c-2.1,3.2-5,5.8-8.6,7.8c-3.6,2-7.5,3-11.6,3
				c-1.8,0-4.2-0.2-7-0.5c-0.7-0.1-1.9-0.2-3.5-0.3C46.2-123.6,44.7-123.6,43.4-123.6z M52.1-159.2c0.9,0.1,2.4,0.2,4.5,0.4
				c2.1,0.2,3.9,0.3,5.3,0.4c0,0.2,1.1-0.2,3.4-1.3c2.2-1.1,4.3-2.7,6-4.9c1.8-2.2,2.6-5.3,2.6-9.1c0-3.8-1.3-6.6-3.9-8.5
				c-2.6-1.9-6.6-2.8-12-2.8c-0.7,0-1.2,0.2-1.4,0.5c-0.3,0.3-0.5,0.9-0.7,1.9l-0.8,5C53.7-169.9,52.8-163.8,52.1-159.2z
				 M48.5-134.6c-0.1,0.3-0.1,0.7-0.1,1.3c0,2.1,0.8,3.6,2.4,4.5c1.6,0.9,4.4,1.4,8.2,1.4c4.3,0,7.8-1.3,10.5-4
				c2.7-2.7,4-6.2,4-10.6c0-3.3-1-6-3-8.2c-2-2.2-5-3.6-8.9-4.2l-10.2,0.2L48.5-134.6z"/>
		</g>
	</g>
</g>
<g>
	<g transform="translate(133.23556, 212.249986)">
		<g>
			<path class="st1" d="M58-129.8c0.5,0,1.2-0.4,2.2-1.1c1-0.7,2.9-2.4,5.9-4.9l1.2,0.1l1.3,2.4c-7.2,7.2-12,10.8-14.3,10.8
				c-1.1,0-1.9-0.3-2.4-0.9c-0.5-0.6-0.7-1.5-0.7-2.7c1.5-8.8,2.7-16.6,3.7-23.3c1-6.7,1.5-10.6,1.5-11.7c0-1.6-0.3-2.7-1-3.3
				c-0.6-0.7-1.7-1-3.3-1H48l0.7-3.9c4.6,0,10.1-0.2,16.5-0.6l0.9,1.2c-1.7,5.5-3.3,11.9-4.9,19.2c-1.6,7.3-2.8,13.7-3.5,19.2
				L58-129.8z M61.7-182.5c-1.4,0-2.4-0.4-3.2-1.3c-0.8-0.9-1.1-2-1.1-3.3c0-1.8,0.6-3.3,1.9-4.6c1.3-1.3,2.9-2,4.7-2
				c1.4,0,2.5,0.4,3.3,1.3c0.8,0.9,1.1,2,1.1,3.2c0,1.8-0.7,3.3-2,4.6C65.2-183.2,63.6-182.5,61.7-182.5z"/>
		</g>
	</g>
</g>
<g>
	<g transform="translate(154.945095, 212.249986)">
		<g>
			<path class="st1" d="M78.9-134.2c-3.1,3.5-6.1,6.3-8.9,8.5c-2.8,2.2-4.9,3.3-6.5,3.3c-1.8,0-3.3-0.5-4.4-1.5
				c-1.1-1-1.6-2.4-1.6-4.2l0.1-1.1l5.6-35l-0.5-0.4l-7-0.3l-0.3-0.5l0.4-3l8.1-1.3l1.6-12.2l9.2-3.6l0.6,1.2
				c-0.3,0.8-0.8,2.7-1.7,5.5c-0.8,2.9-1.6,6-2.4,9.3l12.4-0.1l0.4,0.3l-0.8,4.1l-12-0.1l-1.1,0.6l-6.2,31.3l-0.1,0.9
				c0,1.8,0.8,2.6,2.5,2.6c0.9,0,2.2-0.5,3.7-1.6c1.5-1.1,3.7-2.9,6.4-5.5l1.3,0.1L78.9-134.2z"/>
		</g>
	</g>
</g>
<g>
	<g transform="translate(178.259907, 212.249986)">
		<g>
			<path class="st1" d="M84.7-169.9c-1-4.4-1.6-7-1.7-7.6h-0.4l-1.8,9.3c-4.8,24.7-7.2,37.4-7.2,37.9c0,1.7,0.9,2.5,2.6,2.5l4.1-0.1
				l0.1,0.3l-1.4,4.4c-3.9-0.3-7-0.4-9.4-0.4c-1.5,0-4.3,0.3-8.4,0.8l1.1-4.4c2.1-0.3,3.7-1,4.7-2.1c1-1.2,1.8-3.1,2.5-5.8
				c0.3-1.6,1.1-5.4,2.4-11.5c4.6-21,6.8-32.2,6.8-33.5c0-1.6-0.6-2.7-1.9-3.6c-1.2-0.8-3.3-1.3-6.1-1.5l-0.2-0.4l1.1-3.2l2.4,0.1
				c3.8,0.3,6.5,0.4,8.1,0.4c0.6,0,2.8-0.1,6.4-0.4c1.6,8.8,3.4,18.1,5.5,27.8c2.1,9.7,4,17.6,5.7,23.8h0.4
				c5.4-11.1,13-28.3,22.8-51.5c-0.1-0.1,0.8,0,2.6,0.1l3.5,0.2c2.7,0,6.2-0.2,10.7-0.6l0.1,0.4l-0.9,3.5c-2.9,0.3-5,0.9-6.3,1.8
				c-1.2,0.8-1.9,2.1-2.1,3.8c-0.3,3-0.8,10.3-1.3,22.1c-0.5,11.7-0.8,19.1-0.8,22.2c0,3,0.3,5,0.8,6c0.5,1,1.5,1.5,2.9,1.5l2.8-0.2
				l0.1,0.3l-1.4,4.4c-4.9-0.2-7.9-0.3-9.2-0.3c-2.1,0-5.4,0.3-10,0.8l0.9-4.4c2-0.3,3.6-0.8,4.6-1.6c1-0.8,1.6-2,1.9-3.5
				c0.3-2.8,1-17.9,2.1-45.3h-0.5c-4.4,9.8-13.1,28.2-25.9,55.3l-2.1,0.6L84.7-169.9z"/>
		</g>
	</g>
</g>
<g>
	<g transform="translate(241.935745, 212.249986)">
		<g>
			<path class="st1" d="M114.7-129.8c0.5,0,1.2-0.3,2-1c0.9-0.7,2.9-2.3,6-5l1.2,0.1l1.3,2.4c-4.6,4.3-7.8,7.2-9.8,8.6
				c-2,1.5-3.6,2.2-4.9,2.2c-1,0-1.7-0.3-2.4-0.8c-0.6-0.5-0.9-1.2-0.9-2c0-1.5,1.5-8.6,4.4-21.4l-0.6-0.2c-3.3,6.1-6.5,11.1-9.6,15
				c-3.1,3.9-6.2,7-9.5,9.3c-2.6,0-4.6-1.2-6-3.6c-1.4-2.4-2.1-5.8-2.1-10c0-5.5,1.1-10.9,3.4-16.3c2.3-5.4,5.2-9.7,8.9-13.1
				c3.6-3.4,7.3-5.1,11.1-5.1l10.2,1.6l0.9-2.6l0.5-0.1l3.2,1.5l0.8,1.2c-1.6,5.4-3.3,11.8-4.9,19.1c-1.6,7.3-2.8,13.8-3.6,19.5
				L114.7-129.8z M94.2-130.7c1.2,0,2.9-1.4,5.1-4.3c2.3-2.9,4.8-6.7,7.4-11.4c2.7-4.8,5.2-9.9,7.6-15.3c-1.6-1-3.3-1.8-5.2-2.4
				c-1.9-0.7-3.5-1-4.8-1c-2.3,0-4.5,1.1-6.5,3.4c-2,2.2-3.7,5.2-5,8.9c-1.2,3.7-1.9,7.6-1.9,11.7c0,3,0.3,5.5,0.9,7.5
				C92.6-131.6,93.3-130.7,94.2-130.7z"/>
		</g>
	</g>
</g>
<g>
	<g transform="translate(278.704225, 212.249986)">
		<g>
			<path class="st1" d="M91.9-103.3c1.6-0.1,2.7-0.7,3.5-1.6c0.8-0.9,1.5-2.6,2.1-5.1c0.7-2.4,2.1-11.1,4.4-26
				c2.2-14.9,3.4-23.2,3.4-25.1c0-1.4-0.3-2.4-1-3.1c-0.7-0.7-1.8-1-3.4-1h-4.2l0.7-3.9c4.6,0,10.1-0.2,16.5-0.6l0.9,1.2
				c-2.7,7.8-4.8,15.7-6.3,24l0.4,0.3c3.5-7.4,6.7-13.1,9.3-17.1c2.7-4,5.4-7.2,8.3-9.6c3.1,0,5.5,1.5,7.5,4.4
				c1.9,2.9,2.9,6.8,2.9,11.6c0,5-1.1,10-3.2,15c-2.1,5-4.9,9.1-8.3,12.3c-3.4,3.2-6.7,4.8-10.1,4.8l-9.7-1.3l-2.1,14.8
				c-0.1,0.4-0.1,1-0.1,1.7c0,1.2,0.3,2.1,1,2.5c0.7,0.5,1.8,0.7,3.4,0.7h4.2l0.1,0.6l-0.6,3.4c-7.4,0-14.1,0.2-20.2,0.7L91.9-103.3
				z M125.2-162.5c-1.6,0-4.1,2.9-7.5,8.7c-3.4,5.8-7.1,13.3-11,22.5c1.8,0.9,3.9,1.6,6.1,2.1c2.2,0.5,4.2,0.8,5.8,0.8
				c1.8,0,3.5-1.1,5.3-3.2c1.8-2.1,3.2-4.9,4.3-8.2c1.1-3.4,1.6-6.8,1.6-10.2c0-3.3-0.5-6.2-1.4-8.7
				C127.5-161.2,126.4-162.5,125.2-162.5z"/>
		</g>
	</g>
</g>
<g>
	<g transform="translate(315.77848, 212.249986)">
		<g>
			<path class="st1" d="M117.6-129.8c0.5,0,1.2-0.4,2.2-1.1c1-0.7,2.9-2.4,5.9-4.9l1.2,0.1l1.3,2.4c-7.2,7.2-12,10.8-14.3,10.8
				c-2.1,0-3.2-1-3.2-3c0-0.3,0.4-2.9,1.1-7.7c0.8-4.9,1.5-9.6,2.1-14.1c4.2-26.2,6.3-40.4,6.3-42.6c0-1.4-0.3-2.4-1-3.1
				c-0.7-0.7-1.8-1-3.2-1h-4.2l0.6-3.9c2.6,0,5.7-0.1,9.3-0.2c3.6-0.2,6-0.3,7.1-0.4l0.9,1.2c-0.5,2.1-1.5,6.9-3.1,14.3
				c-1.6,7.4-3.3,16.1-5.1,26c-1.9,9.9-3.3,18.8-4.3,26.6L117.6-129.8z"/>
		</g>
	</g>
</g>
<g>
	<g transform="translate(336.417852, 212.249986)">
		<g>
			<path class="st1" d="M146.8-163c0,4.3-1.9,8-5.6,11c-3.7,3.1-10,6-18.6,9c-0.3,4.3,0.3,7.8,1.6,10.5c1.3,2.7,3.2,4,5.6,4
				c2,0,4.1-0.8,6.1-2.4c2-1.6,3.7-3.7,5.1-6.4l1.4,0.1l1.5,2.5c-2,3.6-4.5,6.6-7.5,8.9c-3,2.3-6,3.5-8.9,3.5
				c-3.7,0-6.6-1.5-8.7-4.5c-2.1-3-3.2-7.1-3.2-12.4c0-5.1,1.1-10.1,3.4-15c2.3-4.9,5.2-8.9,8.8-12c3.6-3.1,7.2-4.6,11-4.6
				c2.6,0,4.6,0.7,6,2.1C146.1-167.4,146.8-165.5,146.8-163z M135.5-165c-1.8,0-3.5,0.8-5.2,2.4c-1.7,1.6-3.2,3.8-4.6,6.5
				c-1.3,2.7-2.2,5.7-2.7,8.9c5.9-1.8,10.1-3.8,12.7-5.8c2.6-2,3.9-4.4,3.9-7.2C139.6-163.4,138.2-165,135.5-165z"/>
		</g>
	</g>
</g>
</svg>
